#!OML:ASF G:\JayActor3\Patient Classification 1\Patient 1\Session 5\male.ASF
:FULLY-SPECIFIED
:DEGREES
555
root 7.43211 16.6114 -5.69096 200.371 -87.0436 -176.11
lowerback 31.5108 -0.59071 1.10931
upperback 6.44889 -1.13272 -0.927632
thorax -10.0013 -0.814495 -1.21867
lowerneck 3.34671 0.915153 1.72735
upperneck -15.563 1.19159 0.211044
head -5.21893 0.355668 -0.274951
rclavicle -2.42517e-014 -5.22804e-014
rhumerus -27.9751 3.956 -87.9027
rradius 38.044
rwrist -4.24349
rhand -21.25 -6.80916
rfingers 7.12502
rthumb 5.13294 -36.727
lclavicle -2.42517e-014 -5.22804e-014
lhumerus -29.5775 -7.90846 87.3848
lradius 35.0007
lwrist 24.4932
lhand -20.127 10.0799
lfingers 7.12502
lthumb 6.21723 39.9686
rfemur -55.6972 2.89394 26.5256
rtibia 43.9573
rfoot -16.3171 -16.7657
rtoes 14.5529
lfemur -57.97 6.20507 -20.7846
ltibia 79.3624
lfoot -9.13797 4.49392
ltoes -18.0594
556
root 7.52222 16.6256 -5.68339 201.188 -87.0391 -176.863
lowerback 31.4318 -0.588654 1.06424
upperback 6.44731 -1.14249 -0.922657
thorax -9.9648 -0.816883 -1.18383
lowerneck 3.33643 0.911945 1.71571
upperneck -15.5758 1.18278 0.193161
head -5.22112 0.35275 -0.278068
rclavicle -2.78299e-015 -6.36111e-015
rhumerus -27.9974 3.99462 -87.9229
rradius 38.12
rwrist -4.29203
rhand -21.1794 -6.80703
rfingers 7.12502
rthumb 5.20114 -36.7232
lclavicle -2.78299e-015 -6.36111e-015
lhumerus -29.6582 -7.90033 87.3663
lradius 35.0326
lwrist 24.492
lhand -20.1305 10.0577
lfingers 7.12502
lthumb 6.21386 39.9466
rfemur -55.8083 2.94723 26.4099
rtibia 43.3726
rfoot -15.6969 -16.905
rtoes 14.6172
lfemur -57.226 6.22334 -20.8063
ltibia 79.668
lfoot -8.95379 4.21004
ltoes -17.7038
557
root 7.61221 16.6375 -5.67561 202 -87.0408 -177.627
lowerback 31.3587 -0.592342 1.0232
upperback 6.44627 -1.15841 -0.91903
thorax -9.9307 -0.822298 -1.15048
lowerneck 3.33203 0.90792 1.70277
upperneck -15.5898 1.17337 0.178373
head -5.22473 0.349419 -0.280009
rclavicle 1.27222e-014 5.56597e-015
rhumerus -28.0276 4.02954 -87.9524
rradius 38.1993
rwrist -4.34205
rhand -21.149 -6.79675
rfingers 7.12502
rthumb 5.2305 -36.7122
lclavicle 1.27222e-014 5.56597e-015
lhumerus -29.7324 -7.88583 87.3395
lradius 35.0402
lwrist 24.4829
lhand -20.104 10.053
lfingers 7.12502
lthumb 6.23941 39.9411
rfemur -55.9236 3.00457 26.2895
rtibia 42.8232
rfoot -15.0784 -17.0708
rtoes 14.587
lfemur -56.472 6.23429 -20.8281
ltibia 79.8895
lfoot -8.75405 3.93847
ltoes -17.6485
558
root 7.70198 16.6474 -5.6674 202.869 -87.0482 -178.464
lowerback 31.2897 -0.601821 0.986423
upperback 6.44692 -1.18067 -0.91751
thorax -9.89687 -0.830856 -1.11956
lowerneck 3.33118 0.904027 1.68911
upperneck -15.5987 1.16479 0.166709
head -5.22737 0.346493 -0.280916
rclavicle 3.61788e-014 4.09496e-014
rhumerus -28.0655 4.05377 -87.9873
rradius 38.2829
rwrist -4.38721
rhand -21.1462 -6.78107
rfingers 7.12502
rthumb 5.23323 -36.6965
lclavicle 3.61788e-014 4.09496e-014
lhumerus -29.795 -7.86303 87.3045
lradius 35.0212
lwrist 24.4655
lhand -20.0536 10.0679
lfingers 7.12502
lthumb 6.28812 39.9545
rfemur -56.0436 3.05891 26.1621
rtibia 42.312
rfoot -14.4582 -17.2495
rtoes 14.4996
lfemur -55.7054 6.23536 -20.8556
ltibia 80.0252
lfoot -8.56126 3.68095
ltoes -17.9429
559
root 7.7918 16.6548 -5.65861 203.713 -87.0586 -179.296
lowerback 31.2285 -0.615864 0.958914
upperback 6.44739 -1.20616 -0.918831
thorax -9.86724 -0.841266 -1.09597
lowerneck 3.32968 0.901276 1.67315
upperneck -15.592 1.15869 0.160193
head -5.22513 0.344981 -0.279951
rclavicle 1.90833e-014 2.04748e-014
rhumerus -28.1145 4.06916 -88.0275
rradius 38.3709
rwrist -4.44788
rhand -21.1537 -6.75891
rfingers 7.12502
rthumb 5.22593 -36.6745
lclavicle 1.90833e-014 2.04748e-014
lhumerus -29.85 -7.84018 87.2625
lradius 34.9815
lwrist 24.4534
lhand -19.9981 10.1008
lfingers 7.12502
lthumb 6.34162 39.9859
rfemur -56.1686 3.10898 26.0336
rtibia 41.8409
rfoot -13.8392 -17.4269
rtoes 14.3426
lfemur -54.9307 6.22973 -20.8853
ltibia 80.0795
lfoot -8.39078 3.4307
ltoes -18.52
560
root 7.88163 16.66 -5.64906 204.389 -87.0749 -179.978
lowerback 31.1752 -0.635682 0.950721
upperback 6.44727 -1.23306 -0.921344
thorax -9.8424 -0.852908 -1.08437
lowerneck 3.33055 0.8999 1.65918
upperneck -15.5689 1.1555 0.155764
head -5.21815 0.345102 -0.278817
rclavicle -2.84262e-014 -2.34566e-014
rhumerus -28.1736 4.07193 -88.0702
rradius 38.4586
rwrist -4.51855
rhand -21.1438 -6.73928
rfingers 7.12502
rthumb 5.23552 -36.6546
lclavicle -2.84262e-014 -2.34566e-014
lhumerus -29.8983 -7.81653 87.216
lradius 34.9196
lwrist 24.4415
lhand -19.9569 10.1377
lfingers 7.12502
lthumb 6.38138 40.0216
rfemur -56.2976 3.15329 25.9123
rtibia 41.4102
rfoot -13.2113 -17.5989
rtoes 14.1328
lfemur -54.1475 6.21518 -20.908
ltibia 80.0527
lfoot -8.24184 3.17861
ltoes -19.2937
561
root 7.97166 16.6624 -5.63874 205.122 -87.0957 -180.732
lowerback 31.1259 -0.659957 0.951298
upperback 6.44525 -1.2631 -0.927219
thorax -9.82199 -0.866247 -1.08045
lowerneck 3.33054 0.901157 1.6451
upperneck -15.526 1.15716 0.156512
head -5.20492 0.347778 -0.276287
rclavicle 3.63776e-014 4.8901e-014
rhumerus -28.239 4.07297 -88.1164
rradius 38.5372
rwrist -4.60189
rhand -21.1241 -6.7178
rfingers 7.12502
rthumb 5.25452 -36.6327
lclavicle 3.63776e-014 4.8901e-014
lhumerus -29.9463 -7.78842 87.167
lradius 34.8485
lwrist 24.4233
lhand -19.9385 10.1798
lfingers 7.12502
lthumb 6.39922 40.0632
rfemur -56.4334 3.18428 25.7899
rtibia 41.0194
rfoot -12.6069 -17.7467
rtoes 13.9414
lfemur -53.3638 6.18425 -20.9352
ltibia 79.9488
lfoot -8.078 2.91018
ltoes -20.0804
562
root 8.06199 16.6624 -5.62758 205.765 -87.1185 -181.409
lowerback 31.0743 -0.687022 0.963901
upperback 6.44395 -1.29309 -0.934045
thorax -9.79982 -0.879899 -1.08468
lowerneck 3.331 0.904432 1.63004
upperneck -15.4703 1.16248 0.161524
head -5.18785 0.352362 -0.272455
rclavicle -2.38542e-014 -7.7526e-015
rhumerus -28.3031 4.08194 -88.1643
rradius 38.5974
rwrist -4.68825
rhand -21.0958 -6.70284
rfingers 7.12502
rthumb 5.28183 -36.617
lclavicle -2.38542e-014 -7.7526e-015
lhumerus -29.9917 -7.75173 87.1175
lradius 34.7734
lwrist 24.3878
lhand -19.9483 10.227
lfingers 7.12502
lthumb 6.38974 40.1106
rfemur -56.5799 3.2048 25.6752
rtibia 40.6668
rfoot -12.0206 -17.8738
rtoes 13.7724
lfemur -52.5832 6.13879 -20.9583
ltibia 79.7678
lfoot -7.89638 2.61256
ltoes -20.8471
563
root 8.15285 16.6597 -5.61575 206.343 -87.1461 -182.028
lowerback 31.0182 -0.716687 0.985275
upperback 6.44312 -1.32356 -0.940446
thorax -9.77507 -0.893976 -1.09343
lowerneck 3.33026 0.910551 1.61859
upperneck -15.4058 1.17206 0.165611
head -5.16776 0.35912 -0.26972
rclavicle -2.78299e-015 -2.66371e-014
rhumerus -28.3647 4.09073 -88.212
rradius 38.6405
rwrist -4.75773
rhand -21.0613 -6.69182
rfingers 7.12502
rthumb 5.3152 -36.6052
lclavicle -2.78299e-015 -2.66371e-014
lhumerus -30.0353 -7.7071 87.0687
lradius 34.6993
lwrist 24.3335
lhand -19.9815 10.2633
lfingers 7.12502
lthumb 6.3577 40.1479
rfemur -56.7374 3.21055 25.5728
rtibia 40.3497
rfoot -11.4678 -17.9783
rtoes 13.6788
lfemur -51.8155 6.07521 -20.9768
ltibia 79.5124
lfoot -7.52609 2.23243
ltoes -21.0071
564
root 8.24449 16.6545 -5.60345 207.028 -87.1692 -182.757
lowerback 30.9523 -0.74332 0.998702
upperback 6.44441 -1.35296 -0.948033
thorax -9.74307 -0.907376 -1.09948
lowerneck 3.32792 0.917975 1.60848
upperneck -15.3402 1.18357 0.170113
head -5.14706 0.366722 -0.267168
rclavicle 4.39314e-014 3.85642e-014
rhumerus -28.4178 4.10288 -88.2582
rradius 38.6677
rwrist -4.80943
rhand -21.0106 -6.69065
rfingers 7.12502
rthumb 5.3641 -36.6028
lclavicle 4.39314e-014 3.85642e-014
lhumerus -30.075 -7.6557 87.0222
lradius 34.6333
lwrist 24.2649
lhand -20.0296 10.2892
lfingers 7.12502
lthumb 6.3112 40.1751
rfemur -56.9109 3.2081 25.469
rtibia 40.0656
rfoot -10.958 -18.0627
rtoes 13.7024
lfemur -51.0659 5.99687 -21.0036
ltibia 79.1799
lfoot -6.99529 1.77043
ltoes -20.5864
565
root 8.33718 16.6468 -5.59074 207.695 -87.1893 -183.475
lowerback 30.8837 -0.766486 1.00858
upperback 6.44615 -1.37907 -0.954794
thorax -9.70901 -0.919174 -1.10387
lowerneck 3.32476 0.925782 1.59979
upperneck -15.2773 1.19549 0.173845
head -5.12708 0.374417 -0.265106
rclavicle -4.05521e-014 -3.55825e-014
rhumerus -28.4693 4.12128 -88.3042
rradius 38.6784
rwrist -4.82739
rhand -20.9997 -6.68769
rfingers 7.12502
rthumb 5.3746 -36.5995
lclavicle -4.05521e-014 -3.55825e-014
lhumerus -30.114 -7.6075 86.9811
lradius 34.5824
lwrist 24.1923
lhand -20.0875 10.3069
lfingers 7.12502
lthumb 6.25537 40.1946
rfemur -57.0976 3.1988 25.372
rtibia 39.8109
rfoot -10.4725 -18.1332
rtoes 13.77
lfemur -50.338 5.91195 -21.0357
ltibia 78.7687
lfoot -6.3095 1.23654
ltoes -19.579
566
root 8.43082 16.6374 -5.57735 208.41 -87.2091 -184.249
lowerback 30.8207 -0.788075 1.01881
upperback 6.44848 -1.4033 -0.962114
thorax -9.67699 -0.930201 -1.10977
lowerneck 3.3223 0.931937 1.59762
upperneck -15.2208 1.20494 0.173245
head -5.10912 0.380643 -0.265344
rclavicle -1.8487e-014 1.68967e-014
rhumerus -28.5229 4.13372 -88.3466
rradius 38.6861
rwrist -4.82596
rhand -20.9794 -6.69545
rfingers 7.12502
rthumb 5.39425 -36.6068
lclavicle -1.8487e-014 1.68967e-014
lhumerus -30.1518 -7.56997 86.9478
lradius 34.5453
lwrist 24.1288
lhand -20.1464 10.3032
lfingers 7.12502
lthumb 6.19846 40.1925
rfemur -57.2898 3.17531 25.2787
rtibia 39.5821
rfoot -10.0043 -18.1888
rtoes 13.8883
lfemur -49.6211 5.81886 -21.0807
ltibia 78.2707
lfoot -5.52853 0.663855
ltoes -18.1396
567
root 8.52538 16.6265 -5.56337 209.197 -87.223 -185.109
lowerback 30.768 -0.804652 1.02375
upperback 6.45313 -1.42341 -0.970628
thorax -9.64712 -0.939386 -1.11541
lowerneck 3.3203 0.936288 1.59918
upperneck -15.1715 1.2116 0.169368
head -5.09346 0.385318 -0.267076
rclavicle -2.00773e-014 -1.59028e-014
rhumerus -28.5789 4.14586 -88.3857
rradius 38.6947
rwrist -4.82465
rhand -20.9601 -6.70721
rfingers 7.12502
rthumb 5.41291 -36.6181
lclavicle -2.00773e-014 -1.59028e-014
lhumerus -30.188 -7.54846 86.925
lradius 34.5282
lwrist 24.0875
lhand -20.2007 10.2923
lfingers 7.12502
lthumb 6.1461 40.1832
rfemur -57.4832 3.14234 25.1847
rtibia 39.3763
rfoot -9.544 -18.2349
rtoes 14.0001
lfemur -48.9044 5.72409 -21.1448
ltibia 77.6779
lfoot -4.74252 0.0930757
ltoes -16.5536
568
root 8.62083 16.6146 -5.54861 209.811 -87.2345 -185.817
lowerback 30.7348 -0.817532 1.03595
upperback 6.46006 -1.43683 -0.976616
thorax -9.62385 -0.945903 -1.12469
lowerneck 3.32669 0.937176 1.60115
upperneck -15.1327 1.21317 0.162181
head -5.08249 0.387486 -0.269692
rclavicle -7.15625e-015 -1.80894e-014
rhumerus -28.6429 4.14939 -88.4179
rradius 38.7093
rwrist -4.82203
rhand -20.9367 -6.71803
rfingers 7.12502
rthumb 5.43546 -36.6283
lclavicle -7.15625e-015 -1.80894e-014
lhumerus -30.2191 -7.54513 86.9165
lradius 34.5208
lwrist 24.0734
lhand -20.2465 10.2688
lfingers 7.12502
lthumb 6.10181 40.1609
rfemur -57.6681 3.10204 25.102
rtibia 39.189
rfoot -9.08054 -18.2748
rtoes 14.0818
lfemur -48.1766 5.63328 -21.2172
ltibia 76.9821
lfoot -3.99856 -0.438007
ltoes -15.0629
569
root 8.71715 16.602 -5.53295 210.355 -87.2402 -186.478
lowerback 30.718 -0.826022 1.05053
upperback 6.47285 -1.44475 -0.982017
thorax -9.6017 -0.950264 -1.13657
lowerneck 3.33753 0.936368 1.60081
upperneck -15.1001 1.2123 0.155216
head -5.07423 0.388452 -0.271762
rclavicle 2.10712e-014 2.42517e-014
rhumerus -28.7086 4.14081 -88.4441
rradius 38.7294
rwrist -4.82001
rhand -20.9261 -6.71986
rfingers 7.12502
rthumb 5.44574 -36.6299
lclavicle 2.10712e-014 2.42517e-014
lhumerus -30.241 -7.55844 86.9212
lradius 34.5246
lwrist 24.0941
lhand -20.2727 10.2408
lfingers 7.12502
lthumb 6.0765 40.1337
rfemur -57.846 3.05251 25.0226
rtibia 39.017
rfoot -8.59861 -18.3135
rtoes 14.0974
lfemur -47.4273 5.54668 -21.3071
ltibia 76.1732
lfoot -3.26076 -0.898105
ltoes -13.695
